# xmcd
#
# Track frame offsets: 
#        150
#        24544
#        44617
#        67147
#        88426
#        110392
#        133175
#        154688
#        178458
#        199005
#
# Disc length: 2874 seconds
#
# Revision: 0
# Processed by: cddbd v1.5.2PL0 Copyright (c) Steve Scherf et al.
# Submitted via: ExactAudioCopyFreeDBPlugin 1.0
#
DISCID=980b380a
DTITLE=Nhu Quynh - Dieu chua dam noi
DYEAR=1900
DGENRE=
TTITLE0=Dieu chua dam noi
TTITLE1=Hoa tim ngay xua
TTITLE2=Gia tu di vang
TTITLE3=Lac mat em
TTITLE4=Chut ky niem buon
TTITLE5=Em dau biet
TTITLE6=Vong tay giu tron an tinh
TTITLE7=Thuo ban dau
TTITLE8=Giot suong tren mi mat
TTITLE9=Mong dep dang do
EXTD=
EXTT0=
EXTT1=
EXTT2=
EXTT3=
EXTT4=
EXTT5=
EXTT6=
EXTT7=
EXTT8=
EXTT9=
PLAYORDER=
